<svg version="1.1" xmlns="http://www.w3.org/2000/svg" xmlns:xlink="http://www.w3.org/1999/xlink" width="714" height="1324"><defs/><g><g transform="translate(-14,2) scale(1,1)"><path fill="none" stroke="#ffffff" d="M 24 8 L 718 8 L 718 1312 L 24 1312 L 24 8" stroke-miterlimit="10"/></g><g transform="translate(-14,2) scale(1,1)"><path fill="#ffffff" stroke="none" d="M 24 8 L 24 30 L 209.10791015625 30 L 220.10791015625 19 L 220.10791015625 8 L 24 8"/></g><g transform="translate(-14,2) scale(1,1)"><path fill="none" stroke="#ffffff" d="M 24 8 L 24 30 L 209.10791015625 30 L 220.10791015625 19 L 220.10791015625 8 L 24 8 L 24 8" stroke-miterlimit="10"/></g><g transform="translate(-14,2) scale(1,1)"><g><path fill="none" stroke="none"/><text fill="#000000" stroke="none" font-family="Arial" font-size="13px" font-style="normal" font-weight="normal" text-decoration="none" x="94.97900390625" y="25.5">Sequence diagram</text></g></g><g transform="translate(-14,2) scale(1,1)"><g><path fill="none" stroke="none"/><text fill="#000000" stroke="none" font-family="Arial" font-size="13px" font-style="normal" font-weight="bold" text-decoration="none" x="29" y="25.5">interaction</text></g></g><g transform="translate(-14,2) scale(1,1)"><path fill="#ffffff" stroke="none" d="M 611.70361328125 50 L 640.70361328125 50 L 640.70361328125 79 L 611.70361328125 79"/></g><g transform="translate(-14,2) scale(1,1)"><path fill="#ffffff" stroke="none" d="M 611.70361328125 50 L 621.70361328125 40 L 650.70361328125 40 L 640.70361328125 50"/></g><g transform="translate(-14,2) scale(1,1)"><path fill="#ffffff" stroke="none" d="M 650.70361328125 40 L 640.70361328125 50 L 640.70361328125 79 L 650.70361328125 69"/></g><g transform="translate(-14,2) scale(1,1)"><path fill="none" stroke="#000000" d="M 611.70361328125 50 L 640.70361328125 50 L 640.70361328125 79 L 611.70361328125 79 L 611.70361328125 50" stroke-miterlimit="10"/></g><g transform="translate(-14,2) scale(1,1)"><path fill="none" stroke="#000000" d="M 611.70361328125 50 L 621.70361328125 40 L 650.70361328125 40 L 640.70361328125 50 L 611.70361328125 50" stroke-miterlimit="10"/></g><g transform="translate(-14,2) scale(1,1)"><path fill="none" stroke="#000000" d="M 650.70361328125 40 L 640.70361328125 50 L 640.70361328125 79 L 650.70361328125 69 L 650.70361328125 40" stroke-miterlimit="10"/></g><g transform="translate(-14,2) scale(1,1)"><g><path fill="none" stroke="none"/><text fill="#000000" stroke="none" font-family="Arial" font-size="13px" font-style="normal" font-weight="bold" text-decoration="none" x="598.464111328125" y="99.5">Side: Client</text></g></g><g transform="translate(-14,2) scale(1,1)"><path fill="none" stroke="#000000" d="M 632.5 105 L 632.5 1280" stroke-miterlimit="10" stroke-dasharray="3"/></g><g transform="translate(-14,2) scale(1,1)"><path fill="#ffffff" stroke="none" d="M 112.804931640625 50 L 141.804931640625 50 L 141.804931640625 79 L 112.804931640625 79"/></g><g transform="translate(-14,2) scale(1,1)"><path fill="#ffffff" stroke="none" d="M 112.804931640625 50 L 122.804931640625 40 L 151.804931640625 40 L 141.804931640625 50"/></g><g transform="translate(-14,2) scale(1,1)"><path fill="#ffffff" stroke="none" d="M 151.804931640625 40 L 141.804931640625 50 L 141.804931640625 79 L 151.804931640625 69"/></g><g transform="translate(-14,2) scale(1,1)"><path fill="none" stroke="#000000" d="M 112.804931640625 50 L 141.804931640625 50 L 141.804931640625 79 L 112.804931640625 79 L 112.804931640625 50" stroke-miterlimit="10"/></g><g transform="translate(-14,2) scale(1,1)"><path fill="none" stroke="#000000" d="M 112.804931640625 50 L 122.804931640625 40 L 151.804931640625 40 L 141.804931640625 50 L 112.804931640625 50" stroke-miterlimit="10"/></g><g transform="translate(-14,2) scale(1,1)"><path fill="none" stroke="#000000" d="M 151.804931640625 40 L 141.804931640625 50 L 141.804931640625 79 L 151.804931640625 69 L 151.804931640625 40" stroke-miterlimit="10"/></g><g transform="translate(-14,2) scale(1,1)"><g><path fill="none" stroke="none"/><text fill="#000000" stroke="none" font-family="Arial" font-size="13px" font-style="normal" font-weight="bold" text-decoration="none" x="97.0390625" y="99.5">Side: Server</text></g></g><g transform="translate(-14,2) scale(1,1)"><path fill="none" stroke="#000000" d="M 133.5 105 L 133.5 1280" stroke-miterlimit="10" stroke-dasharray="3"/></g><g transform="translate(-14,2) scale(1,1)"><g><path fill="none" stroke="none"/><text fill="#000000" stroke="none" font-family="Arial" font-size="18px" font-style="normal" font-weight="normal" text-decoration="none" x="309" y="663">Send message event</text></g></g><g transform="translate(-14,2) scale(1,1)"><g><path fill="none" stroke="none"/><text fill="#000000" stroke="none" font-family="Arial" font-size="18px" font-style="normal" font-weight="normal" text-decoration="none" x="336" y="887">Invite user event</text></g></g><g transform="translate(-14,2) scale(1,1)"><g><path fill="none" stroke="none"/><text fill="#000000" stroke="none" font-family="Arial" font-size="18px" font-style="normal" font-weight="normal" text-decoration="none" x="332" y="1015">User leave event</text></g></g><g transform="translate(-14,2) scale(1,1)"><path fill="none" stroke="#000000" d="M 632 125 L 139 125" stroke-miterlimit="10"/></g><g transform="translate(-14,2) scale(1,1)"><path fill="#000000" stroke="none" d="M 149.16267485762415 120.79048224398402 L 139 125 L 149.16267485762415 129.209517756016"/></g><g transform="translate(-14,2) scale(1,1)"><path fill="none" stroke="#000000" d="M 149.16267485762415 120.79048224398402 L 139 125 L 149.16267485762415 129.209517756016 L 149.16267485762415 120.79048224398402" stroke-miterlimit="10"/></g><g transform="translate(-14,2) scale(1,1)"><g><path fill="none" stroke="none"/><text fill="#000000" stroke="none" font-family="Arial" font-size="18px" font-style="normal" font-weight="normal" text-decoration="none" x="332.0068359375" y="118.5">Open chat page</text></g></g><g transform="translate(-14,2) scale(1,1)"><rect fill="#ffffff" stroke="none" x="126" y="125" width="13" height="1139"/></g><g transform="translate(-14,2) scale(1,1)"><path fill="none" stroke="#000000" d="M 126 125 L 139 125 L 139 1264 L 126 1264 L 126 125 Z Z" stroke-miterlimit="10"/></g><g transform="translate(-14,2) scale(1,1)"><path fill="none" stroke="#000000" d="M 139 209 L 625 209" stroke-miterlimit="10"/></g><g transform="translate(-14,2) scale(1,1)"><path fill="#000000" stroke="none" d="M 614.8373251423759 213.209517756016 L 625 209 L 614.8373251423758 204.790482243984"/></g><g transform="translate(-14,2) scale(1,1)"><path fill="none" stroke="#000000" d="M 614.8373251423759 213.209517756016 L 625 209 L 614.8373251423758 204.790482243984 L 614.8373251423759 213.209517756016" stroke-miterlimit="10"/></g><g transform="translate(-14,2) scale(1,1)"><g><path fill="none" stroke="none"/><text fill="#000000" stroke="none" font-family="Arial" font-size="18px" font-style="normal" font-weight="normal" text-decoration="none" x="340.16845703125" y="205.5">Connect event</text></g></g><g transform="translate(-14,2) scale(1,1)"><rect fill="#ffffff" stroke="none" x="625" y="209" width="13" height="47"/></g><g transform="translate(-14,2) scale(1,1)"><path fill="none" stroke="#000000" d="M 625 209 L 638 209 L 638 256 L 625 256 L 625 209 Z Z" stroke-miterlimit="10"/></g><g transform="translate(-14,2) scale(1,1)"><path fill="none" stroke="#000000" d="M 632 256 L 146 256" stroke-miterlimit="10"/></g><g transform="translate(-14,2) scale(1,1)"><path fill="#000000" stroke="none" d="M 156.16267485762415 251.790482243984 L 146 256 L 156.16267485762415 260.209517756016"/></g><g transform="translate(-14,2) scale(1,1)"><path fill="none" stroke="#000000" d="M 156.16267485762415 251.790482243984 L 146 256 L 156.16267485762415 260.209517756016 L 156.16267485762415 251.790482243984" stroke-miterlimit="10"/></g><g transform="translate(-14,2) scale(1,1)"><g><path fill="none" stroke="none"/><text fill="#000000" stroke="none" font-family="Arial" font-size="13px" font-style="normal" font-weight="normal" text-decoration="none" x="224.5" y="272.5">write_message(title, timestamp, control_message="join")</text></g></g><g transform="translate(-14,2) scale(1,1)"><rect fill="#ffffff" stroke="none" x="133" y="256" width="13" height="48"/></g><g transform="translate(-14,2) scale(1,1)"><path fill="none" stroke="#000000" d="M 133 256 L 146 256 L 146 304 L 133 304 L 133 256 Z Z" stroke-miterlimit="10"/></g><g transform="translate(-14,2) scale(1,1)"><path fill="none" stroke="#000000" d="M 139 304 L 625 304" stroke-miterlimit="10"/></g><g transform="translate(-14,2) scale(1,1)"><path fill="#000000" stroke="none" d="M 614.8373251423759 308.209517756016 L 625 304 L 614.8373251423758 299.790482243984"/></g><g transform="translate(-14,2) scale(1,1)"><path fill="none" stroke="#000000" d="M 614.8373251423759 308.209517756016 L 625 304 L 614.8373251423758 299.790482243984 L 614.8373251423759 308.209517756016" stroke-miterlimit="10"/></g><g transform="translate(-14,2) scale(1,1)"><g><path fill="none" stroke="none"/><text fill="#000000" stroke="none" font-family="Arial" font-size="13px" font-style="normal" font-weight="normal" text-decoration="none" x="310.614990234375" y="319.5">chat_content_updated()</text></g></g><g transform="translate(-14,2) scale(1,1)"><rect fill="#ffffff" stroke="none" x="625" y="304" width="13" height="48"/></g><g transform="translate(-14,2) scale(1,1)"><path fill="none" stroke="#000000" d="M 625 304 L 638 304 L 638 352 L 625 352 L 625 304 Z Z" stroke-miterlimit="10"/></g><g transform="translate(-14,2) scale(1,1)"><path fill="none" stroke="#000000" d="M 632 352 L 146 352" stroke-miterlimit="10"/></g><g transform="translate(-14,2) scale(1,1)"><path fill="#000000" stroke="none" d="M 156.16267485762415 347.790482243984 L 146 352 L 156.16267485762415 356.209517756016"/></g><g transform="translate(-14,2) scale(1,1)"><path fill="none" stroke="#000000" d="M 156.16267485762415 347.790482243984 L 146 352 L 156.16267485762415 356.209517756016 L 156.16267485762415 347.790482243984" stroke-miterlimit="10"/></g><g transform="translate(-14,2) scale(1,1)"><g><path fill="none" stroke="none"/><text fill="#000000" stroke="none" font-family="Arial" font-size="13px" font-style="normal" font-weight="normal" text-decoration="none" x="222.625" y="368.5">read_messages(title, cur_msg_id, control_message=null)</text></g></g><g transform="translate(-14,2) scale(1,1)"><rect fill="#ffffff" stroke="none" x="133" y="352" width="13" height="48"/></g><g transform="translate(-14,2) scale(1,1)"><path fill="none" stroke="#000000" d="M 133 352 L 146 352 L 146 400 L 133 400 L 133 352 Z Z" stroke-miterlimit="10"/></g><g transform="translate(-14,2) scale(1,1)"><path fill="none" stroke="#000000" d="M 139 400 L 632 400" stroke-miterlimit="10" stroke-dasharray="3"/></g><g transform="translate(-14,2) scale(1,1)"><path fill="none" stroke="#000000" d="M 621.8373251423759 404.209517756016 L 632 400 L 621.8373251423758 395.790482243984" stroke-miterlimit="10"/></g><g transform="translate(-14,2) scale(1,1)"><g><path fill="none" stroke="none"/><text fill="#000000" stroke="none" font-family="Arial" font-size="13px" font-style="normal" font-weight="normal" text-decoration="none" x="241.53271484375" y="419.5">update_messages(messages, cur_msg_id, users)</text></g></g><g transform="translate(-14,2) scale(1,1)"><path fill="none" stroke="#000000" d="M 139 480 L 625 480" stroke-miterlimit="10"/></g><g transform="translate(-14,2) scale(1,1)"><path fill="#000000" stroke="none" d="M 614.8373251423759 484.209517756016 L 625 480 L 614.8373251423758 475.790482243984"/></g><g transform="translate(-14,2) scale(1,1)"><path fill="none" stroke="#000000" d="M 614.8373251423759 484.209517756016 L 625 480 L 614.8373251423758 475.790482243984 L 614.8373251423759 484.209517756016" stroke-miterlimit="10"/></g><g transform="translate(-14,2) scale(1,1)"><g><path fill="none" stroke="none"/><text fill="#000000" stroke="none" font-family="Arial" font-size="18px" font-style="normal" font-weight="normal" text-decoration="none" x="330.1123046875" y="477.5">Reconnect event</text></g></g><g transform="translate(-14,2) scale(1,1)"><rect fill="#ffffff" stroke="none" x="625" y="480" width="13" height="48"/></g><g transform="translate(-14,2) scale(1,1)"><path fill="none" stroke="#000000" d="M 625 480 L 638 480 L 638 528 L 625 528 L 625 480 Z Z" stroke-miterlimit="10"/></g><g transform="translate(-14,2) scale(1,1)"><path fill="none" stroke="#000000" d="M 632 528 L 146 528" stroke-miterlimit="10"/></g><g transform="translate(-14,2) scale(1,1)"><path fill="#000000" stroke="none" d="M 156.16267485762415 523.790482243984 L 146 528 L 156.16267485762415 532.209517756016"/></g><g transform="translate(-14,2) scale(1,1)"><path fill="none" stroke="#000000" d="M 156.16267485762415 523.790482243984 L 146 528 L 156.16267485762415 532.209517756016 L 156.16267485762415 523.790482243984" stroke-miterlimit="10"/></g><g transform="translate(-14,2) scale(1,1)"><g><path fill="none" stroke="none"/><text fill="#000000" stroke="none" font-family="Arial" font-size="13px" font-style="normal" font-weight="normal" text-decoration="none" x="218.5" y="544.5">read_messages(title, cur_msg_id, control_message="join")</text></g></g><g transform="translate(-14,2) scale(1,1)"><rect fill="#ffffff" stroke="none" x="133" y="528" width="13" height="47"/></g><g transform="translate(-14,2) scale(1,1)"><path fill="none" stroke="#000000" d="M 133 528 L 146 528 L 146 575 L 133 575 L 133 528 Z Z" stroke-miterlimit="10"/></g><g transform="translate(-14,2) scale(1,1)"><path fill="none" stroke="#000000" d="M 139 576 L 632 576" stroke-miterlimit="10" stroke-dasharray="3"/></g><g transform="translate(-14,2) scale(1,1)"><path fill="none" stroke="#000000" d="M 621.8373251423759 580.209517756016 L 632 576 L 621.8373251423758 571.790482243984" stroke-miterlimit="10"/></g><g transform="translate(-14,2) scale(1,1)"><g><path fill="none" stroke="none"/><text fill="#000000" stroke="none" font-family="Arial" font-size="13px" font-style="normal" font-weight="normal" text-decoration="none" x="241.53271484375" y="595.5">update_messages(messages, cur_msg_id, users)</text></g></g><g transform="translate(-14,2) scale(1,1)"><path fill="none" stroke="#000000" d="M 632 669 L 146 669" stroke-miterlimit="10"/></g><g transform="translate(-14,2) scale(1,1)"><path fill="none" stroke="#000000" d="M 156.16267485762415 664.790482243984 L 146 669 L 156.16267485762415 673.209517756016" stroke-miterlimit="10"/></g><g transform="translate(-14,2) scale(1,1)"><g><path fill="none" stroke="none"/><text fill="#000000" stroke="none" font-family="Arial" font-size="13px" font-style="normal" font-weight="normal" text-decoration="none" x="177.5" y="692.5">write_message(message, timestamp, title, control_message="message")</text></g></g><g transform="translate(-14,2) scale(1,1)"><rect fill="#ffffff" stroke="none" x="133" y="669" width="13" height="51"/></g><g transform="translate(-14,2) scale(1,1)"><path fill="none" stroke="#000000" d="M 133 669 L 146 669 L 146 720 L 133 720 L 133 669 Z Z" stroke-miterlimit="10"/></g><g transform="translate(-14,2) scale(1,1)"><path fill="none" stroke="#000000" d="M 139 720 L 625 720" stroke-miterlimit="10"/></g><g transform="translate(-14,2) scale(1,1)"><path fill="#000000" stroke="none" d="M 614.8373251423759 724.209517756016 L 625 720 L 614.8373251423758 715.790482243984"/></g><g transform="translate(-14,2) scale(1,1)"><path fill="none" stroke="#000000" d="M 614.8373251423759 724.209517756016 L 625 720 L 614.8373251423758 715.790482243984 L 614.8373251423759 724.209517756016" stroke-miterlimit="10"/></g><g transform="translate(-14,2) scale(1,1)"><g><path fill="none" stroke="none"/><text fill="#000000" stroke="none" font-family="Arial" font-size="13px" font-style="normal" font-weight="normal" text-decoration="none" x="313.147705078125" y="739.5">chat_content_updated()</text></g></g><g transform="translate(-14,2) scale(1,1)"><rect fill="#ffffff" stroke="none" x="625" y="720" width="13" height="48"/></g><g transform="translate(-14,2) scale(1,1)"><path fill="none" stroke="#000000" d="M 625 720 L 638 720 L 638 768 L 625 768 L 625 720 Z Z" stroke-miterlimit="10"/></g><g transform="translate(-14,2) scale(1,1)"><path fill="none" stroke="#000000" d="M 632 768 L 146 768" stroke-miterlimit="10"/></g><g transform="translate(-14,2) scale(1,1)"><path fill="#000000" stroke="none" d="M 156.16267485762415 763.790482243984 L 146 768 L 156.16267485762415 772.209517756016"/></g><g transform="translate(-14,2) scale(1,1)"><path fill="none" stroke="#000000" d="M 156.16267485762415 763.790482243984 L 146 768 L 156.16267485762415 772.209517756016 L 156.16267485762415 763.790482243984" stroke-miterlimit="10"/></g><g transform="translate(-14,2) scale(1,1)"><g><path fill="none" stroke="none"/><text fill="#000000" stroke="none" font-family="Arial" font-size="13px" font-style="normal" font-weight="normal" text-decoration="none" x="221.5" y="788.5">read_messages(title, cur_msg_id, control_message=null)</text></g></g><g transform="translate(-14,2) scale(1,1)"><rect fill="#ffffff" stroke="none" x="133" y="768" width="13" height="48"/></g><g transform="translate(-14,2) scale(1,1)"><path fill="none" stroke="#000000" d="M 133 768 L 146 768 L 146 816 L 133 816 L 133 768 Z Z" stroke-miterlimit="10"/></g><g transform="translate(-14,2) scale(1,1)"><path fill="none" stroke="#000000" d="M 139 816 L 632 816" stroke-miterlimit="10" stroke-dasharray="3"/></g><g transform="translate(-14,2) scale(1,1)"><path fill="none" stroke="#000000" d="M 621.8373251423759 820.209517756016 L 632 816 L 621.8373251423758 811.790482243984" stroke-miterlimit="10"/></g><g transform="translate(-14,2) scale(1,1)"><g><path fill="none" stroke="none"/><text fill="#000000" stroke="none" font-family="Arial" font-size="13px" font-style="normal" font-weight="normal" text-decoration="none" x="235.147705078125" y="836.5">update_messages(messages, cur_msg_id, users)</text></g></g><g transform="translate(-14,2) scale(1,1)"><path fill="none" stroke="#000000" d="M 632 898 L 146 898" stroke-miterlimit="10"/></g><g transform="translate(-14,2) scale(1,1)"><path fill="none" stroke="#000000" d="M 156.16267485762415 893.790482243984 L 146 898 L 156.16267485762415 902.209517756016" stroke-miterlimit="10"/></g><g transform="translate(-14,2) scale(1,1)"><g><path fill="none" stroke="none"/><text fill="#000000" stroke="none" font-family="Arial" font-size="13px" font-style="normal" font-weight="normal" text-decoration="none" x="302.147705078125" y="914.5">users_update(username, title)</text></g></g><g transform="translate(-14,2) scale(1,1)"><rect fill="#ffffff" stroke="none" x="133" y="898" width="13" height="46"/></g><g transform="translate(-14,2) scale(1,1)"><path fill="none" stroke="#000000" d="M 133 898 L 146 898 L 146 944 L 133 944 L 133 898 Z Z" stroke-miterlimit="10"/></g><g transform="translate(-14,2) scale(1,1)"><path fill="none" stroke="#000000" d="M 139 944 L 632 944" stroke-miterlimit="10" stroke-dasharray="3"/></g><g transform="translate(-14,2) scale(1,1)"><path fill="none" stroke="#000000" d="M 621.8373251423759 948.209517756016 L 632 944 L 621.8373251423758 939.790482243984" stroke-miterlimit="10"/></g><g transform="translate(-14,2) scale(1,1)"><g><path fill="none" stroke="none"/><text fill="#000000" stroke="none" font-family="Arial" font-size="13px" font-style="normal" font-weight="normal" text-decoration="none" x="154.147705078125" y="963.5">users_update(username, current_user, username_validated, user_exists, users)</text></g></g><g transform="translate(-14,2) scale(1,1)"><path fill="none" stroke="#000000" d="M 139 1023 L 625 1023" stroke-miterlimit="10"/></g><g transform="translate(-14,2) scale(1,1)"><path fill="none" stroke="#000000" d="M 614.8373251423759 1027.2095177560159 L 625 1023 L 614.8373251423758 1018.790482243984" stroke-miterlimit="10"/></g><g transform="translate(-14,2) scale(1,1)"><g><path fill="none" stroke="none"/><text fill="#000000" stroke="none" font-family="Arial" font-size="13px" font-style="normal" font-weight="normal" text-decoration="none" x="291.147705078125" y="1044.5">redirect_via_event(redirect_url)</text></g></g><g transform="translate(-14,2) scale(1,1)"><rect fill="#ffffff" stroke="none" x="625" y="1023" width="13" height="49"/></g><g transform="translate(-14,2) scale(1,1)"><path fill="none" stroke="#000000" d="M 625 1023 L 638 1023 L 638 1072 L 625 1072 L 625 1023 Z Z" stroke-miterlimit="10"/></g><g transform="translate(-14,2) scale(1,1)"><path fill="none" stroke="#000000" d="M 632 1072 L 146 1072" stroke-miterlimit="10"/></g><g transform="translate(-14,2) scale(1,1)"><path fill="#000000" stroke="none" d="M 156.16267485762415 1067.7904822439841 L 146 1072 L 156.16267485762415 1076.2095177560159"/></g><g transform="translate(-14,2) scale(1,1)"><path fill="none" stroke="#000000" d="M 156.16267485762415 1067.7904822439841 L 146 1072 L 156.16267485762415 1076.2095177560159 L 156.16267485762415 1067.7904822439841" stroke-miterlimit="10"/></g><g transform="translate(-14,2) scale(1,1)"><g><path fill="none" stroke="none"/><text fill="#000000" stroke="none" font-family="Arial" font-size="13px" font-style="normal" font-weight="normal" text-decoration="none" x="191.5" y="1088.5">write_message(message, timestamp, title, control_message="write")</text></g></g><g transform="translate(-14,2) scale(1,1)"><rect fill="#ffffff" stroke="none" x="133" y="1072" width="13" height="48"/></g><g transform="translate(-14,2) scale(1,1)"><path fill="none" stroke="#000000" d="M 133 1072 L 146 1072 L 146 1120 L 133 1120 L 133 1072 Z Z" stroke-miterlimit="10"/></g><g transform="translate(-14,2) scale(1,1)"><path fill="none" stroke="#000000" d="M 139 1120 L 625 1120" stroke-miterlimit="10"/></g><g transform="translate(-14,2) scale(1,1)"><path fill="#000000" stroke="none" d="M 614.8373251423759 1124.2095177560159 L 625 1120 L 614.8373251423758 1115.7904822439841"/></g><g transform="translate(-14,2) scale(1,1)"><path fill="none" stroke="#000000" d="M 614.8373251423759 1124.2095177560159 L 625 1120 L 614.8373251423758 1115.7904822439841 L 614.8373251423759 1124.2095177560159" stroke-miterlimit="10"/></g><g transform="translate(-14,2) scale(1,1)"><g><path fill="none" stroke="none"/><text fill="#000000" stroke="none" font-family="Arial" font-size="13px" font-style="normal" font-weight="normal" text-decoration="none" x="313.147705078125" y="1139.5">chat_content_updated()</text></g></g><g transform="translate(-14,2) scale(1,1)"><rect fill="#ffffff" stroke="none" x="625" y="1120" width="13" height="48"/></g><g transform="translate(-14,2) scale(1,1)"><path fill="none" stroke="#000000" d="M 625 1120 L 638 1120 L 638 1168 L 625 1168 L 625 1120 Z Z" stroke-miterlimit="10"/></g><g transform="translate(-14,2) scale(1,1)"><path fill="none" stroke="#000000" d="M 632 1168 L 146 1168" stroke-miterlimit="10"/></g><g transform="translate(-14,2) scale(1,1)"><path fill="#000000" stroke="none" d="M 156.16267485762415 1163.7904822439841 L 146 1168 L 156.16267485762415 1172.2095177560159"/></g><g transform="translate(-14,2) scale(1,1)"><path fill="none" stroke="#000000" d="M 156.16267485762415 1163.7904822439841 L 146 1168 L 156.16267485762415 1172.2095177560159 L 156.16267485762415 1163.7904822439841" stroke-miterlimit="10"/></g><g transform="translate(-14,2) scale(1,1)"><g><path fill="none" stroke="none"/><text fill="#000000" stroke="none" font-family="Arial" font-size="13px" font-style="normal" font-weight="normal" text-decoration="none" x="223.5" y="1184.5">read_messages(title, cur_msg_id, control_message=null)</text></g></g><g transform="translate(-14,2) scale(1,1)"><rect fill="#ffffff" stroke="none" x="133" y="1168" width="13" height="48"/></g><g transform="translate(-14,2) scale(1,1)"><path fill="none" stroke="#000000" d="M 133 1168 L 146 1168 L 146 1216 L 133 1216 L 133 1168 Z Z" stroke-miterlimit="10"/></g><g transform="translate(-14,2) scale(1,1)"><path fill="none" stroke="#000000" d="M 139 1216 L 632 1216" stroke-miterlimit="10" stroke-dasharray="3"/></g><g transform="translate(-14,2) scale(1,1)"><path fill="none" stroke="#000000" d="M 621.8373251423759 1220.2095177560159 L 632 1216 L 621.8373251423758 1211.7904822439841" stroke-miterlimit="10"/></g><g transform="translate(-14,2) scale(1,1)"><g><path fill="none" stroke="none"/><text fill="#000000" stroke="none" font-family="Arial" font-size="13px" font-style="normal" font-weight="normal" text-decoration="none" x="241.147705078125" y="1235.5">update_messages(messages, cur_msg_id, users)</text></g></g></g></svg>